<svg xmlns="http://www.w3.org/2000/svg" viewBox="0 0 512 512">
  <defs>
    <linearGradient id="bg" x1="0%" y1="0%" x2="100%" y2="100%">
      <stop offset="0%" style="stop-color:#1a1a2e"/>
      <stop offset="100%" style="stop-color:#16213e"/>
    </linearGradient>
    <linearGradient id="accent" x1="0%" y1="0%" x2="100%" y2="100%">
      <stop offset="0%" style="stop-color:#4fc3f7"/>
      <stop offset="100%" style="stop-color:#26c6da"/>
    </linearGradient>
  </defs>

  <!-- Rounded square background -->
  <rect x="16" y="16" width="480" height="480" rx="96" ry="96" fill="url(#bg)" stroke="#2a3a5c" stroke-width="4"/>

  <!-- Calendar icon body -->
  <rect x="96" y="140" width="320" height="280" rx="24" ry="24" fill="none" stroke="url(#accent)" stroke-width="10"/>

  <!-- Calendar top bar -->
  <rect x="96" y="140" width="320" height="70" rx="24" ry="24" fill="url(#accent)" opacity="0.9"/>
  <rect x="96" y="186" width="320" height="24" fill="url(#accent)" opacity="0.9"/>

  <!-- Calendar binding rings -->
  <rect x="176" y="112" width="16" height="56" rx="8" fill="url(#accent)"/>
  <rect x="320" y="112" width="16" height="56" rx="8" fill="url(#accent)"/>

  <!-- Grid lines -->
  <line x1="203" y1="210" x2="203" y2="420" stroke="#2a3a5c" stroke-width="3"/>
  <line x1="310" y1="210" x2="310" y2="420" stroke="#2a3a5c" stroke-width="3"/>
  <line x1="96" y1="280" x2="416" y2="280" stroke="#2a3a5c" stroke-width="3"/>
  <line x1="96" y1="350" x2="416" y2="350" stroke="#2a3a5c" stroke-width="3"/>

  <!-- Green dot - available -->
  <circle cx="150" cy="245" r="18" fill="#55ff55" opacity="0.9"/>

  <!-- Red dot - booked -->
  <circle cx="256" cy="245" r="18" fill="#ff5555" opacity="0.9"/>

  <!-- Green dot - available -->
  <circle cx="363" cy="245" r="18" fill="#55ff55" opacity="0.9"/>

  <!-- Blue dot - backup -->
  <circle cx="150" cy="315" r="18" fill="#5555ff" opacity="0.9"/>

  <!-- Red dot - booked -->
  <circle cx="256" cy="315" r="18" fill="#ff5555" opacity="0.9"/>

  <!-- Yellow dot - maybe -->
  <circle cx="363" cy="315" r="18" fill="#ffff55" opacity="0.9"/>

  <!-- Green dot - available -->
  <circle cx="150" cy="385" r="18" fill="#55ff55" opacity="0.9"/>

  <!-- Red dot - booked -->
  <circle cx="256" cy="385" r="18" fill="#ff5555" opacity="0.9"/>

  <!-- Blue dot - backup -->
  <circle cx="363" cy="385" r="18" fill="#5555ff" opacity="0.9"/>

  <!-- Headphones overlay (bottom right) -->
  <g transform="translate(340, 340) scale(0.7)">
    <path d="M40,120 C40,60 100,10 160,10 C220,10 280,60 280,120" fill="none" stroke="url(#accent)" stroke-width="18" stroke-linecap="round"/>
    <rect x="20" y="105" width="50" height="80" rx="14" fill="url(#accent)"/>
    <rect x="250" y="105" width="50" height="80" rx="14" fill="url(#accent)"/>
  </g>
</svg>
